<svg id="Layer_1" data-name="Layer 1" xmlns="http://www.w3.org/2000/svg" viewBox="0 0 61.8 61.8"><defs><style>.cls-1{fill:#231f20;}.cls-2{fill:#e9383e;}</style></defs><title>logo</title><path class="cls-2" d="M54.7,23.9A30.92,30.92,0,0,0,23.8,54.8,30.6,30.6,0,0,0,35.9,79.3l4.5-4.5c0.1-.1.1-0.2,0.2-0.3l0.7-.7,6.4-6.4a14.21,14.21,0,0,0,7.1,1.9,14.52,14.52,0,1,0-12.4-7L36,68.8a23.19,23.19,0,0,1-4.6-13.9A23.36,23.36,0,1,1,48.7,77.4l-0.6.6-5.2,5.4A30.92,30.92,0,1,0,54.7,23.9Z" transform="translate(-23.8 -23.9)"/></svg>