<svg width="275" height="51" viewBox="0 0 275 51" fill="none" xmlns="http://www.w3.org/2000/svg">
<title>ElasticPress.io Logo</title>
<path d="M78.0389 35.0024C73.8304 35.0024 70.3433 31.7548 70.3433 26.9435C70.3433 22.493 73.4696 18.8845 77.7984 18.8845C82.3677 18.8845 85.0131 22.6133 85.0131 26.7029C85.0131 27.3043 84.5322 27.7855 83.9309 27.7855H72.7482C73.1089 31.1534 75.3935 33.0779 78.1592 33.0779C80.0831 33.0779 81.526 32.3562 82.6082 31.2737C82.7285 31.1534 82.969 31.0331 83.2095 31.0331C83.8107 31.0331 84.1714 31.5142 84.1714 31.9954C84.1714 32.2359 84.0512 32.4765 83.8107 32.7171C82.488 34.0402 80.6843 35.0024 78.0389 35.0024ZM82.6082 26.1015C82.3677 23.335 80.8046 20.809 77.6782 20.809C75.0328 20.809 72.9887 23.0944 72.6279 26.1015H82.6082Z" fill="black"></path>
<path d="M89.2217 13.8326C89.2217 13.2312 89.7027 12.6298 90.3039 12.6298C90.9051 12.6298 91.5063 13.1109 91.5063 13.8326V33.6793C91.5063 34.2807 91.0254 34.8821 90.4241 34.8821C89.8229 34.8821 89.2217 34.401 89.2217 33.6793V13.8326Z" fill="black"></path>
<path d="M95.7148 30.1911C95.7148 26.8232 98.3602 25.1392 102.328 25.1392C104.252 25.1392 105.695 25.3798 107.138 25.7406V25.2595C107.138 22.493 105.455 21.0496 102.569 21.0496C101.006 21.0496 99.6829 21.4104 98.6007 21.8916C98.4805 21.8916 98.3602 22.0118 98.24 22.0118C97.759 22.0118 97.278 21.5307 97.278 21.0496C97.278 20.5684 97.6388 20.2076 97.8793 20.0873C99.4424 19.4859 101.006 19.0048 102.93 19.0048C105.094 19.0048 106.777 19.6062 107.98 20.6887C109.062 21.7713 109.543 23.2147 109.543 25.2595V33.6793C109.543 34.2807 109.062 34.7618 108.461 34.7618C107.86 34.7618 107.379 34.2807 107.379 33.6793V32.2359C106.296 33.6793 104.493 34.8821 101.727 34.8821C98.6007 35.0024 95.7148 33.3184 95.7148 30.1911ZM107.138 28.9883V27.5449C106.056 27.184 104.493 26.9434 102.569 26.9434C99.6829 26.9434 97.9995 28.1463 97.9995 30.1911C97.9995 32.1156 99.8032 33.3184 101.847 33.3184C104.853 33.1982 107.138 31.3939 107.138 28.9883Z" fill="black"></path>
<path d="M113.391 32.9575C113.151 32.8373 113.03 32.4764 113.03 32.1156C113.03 31.6344 113.511 31.1533 113.992 31.1533C114.233 31.1533 114.353 31.1533 114.593 31.3939C116.157 32.4764 117.84 33.0778 119.523 33.0778C121.327 33.0778 122.77 32.1156 122.77 30.6722C122.77 29.1085 120.966 28.5071 118.922 27.9057C116.517 27.184 113.752 26.342 113.752 23.5755C113.752 20.9292 115.916 19.125 119.043 19.125C120.726 19.125 122.53 19.6061 123.973 20.4481C124.213 20.5684 124.574 20.9292 124.574 21.4104C124.574 21.8915 124.093 22.3726 123.612 22.3726C123.371 22.3726 123.251 22.3726 123.131 22.2524C121.808 21.5307 120.365 21.0495 119.043 21.0495C117.239 21.0495 116.036 22.0118 116.036 23.3349C116.036 24.7783 117.96 25.3797 120.004 25.9811C122.409 26.7028 124.935 27.6651 124.935 30.4316C124.935 33.3184 122.53 35.1226 119.403 35.1226C117.359 35.0024 115.074 34.1604 113.391 32.9575Z" fill="black"></path>
<path d="M129.744 30.5519V21.1698H128.542C128.061 21.1698 127.58 20.6887 127.58 20.2075C127.58 19.6061 128.061 19.2453 128.542 19.2453H129.744V15.6368C129.744 15.0354 130.225 14.434 130.827 14.434C131.428 14.434 132.029 14.9151 132.029 15.6368V19.2453H135.997C136.598 19.2453 137.079 19.7264 137.079 20.2075C137.079 20.809 136.598 21.1698 135.997 21.1698H132.029V30.191C132.029 32.1156 133.111 32.717 134.675 32.717C135.516 32.717 135.877 32.4764 136.117 32.4764C136.598 32.4764 137.079 32.9575 137.079 33.4387C137.079 33.7995 136.839 34.1604 136.478 34.2807C135.877 34.5212 135.156 34.6415 134.194 34.6415C131.548 34.8821 129.744 33.6792 129.744 30.5519Z" fill="black"></path>
<path d="M141.047 14.3137C141.047 13.592 141.648 13.1108 142.37 13.1108C143.091 13.1108 143.692 13.592 143.692 14.3137V14.6745C143.692 15.3962 143.091 15.8773 142.37 15.8773C141.648 15.8773 141.047 15.3962 141.047 14.6745V14.3137ZM141.167 20.2075C141.167 19.6061 141.648 19.0047 142.249 19.0047C142.851 19.0047 143.452 19.4858 143.452 20.2075V33.6792C143.452 34.2807 142.971 34.8821 142.37 34.8821C141.768 34.8821 141.167 34.4009 141.167 33.6792V20.2075Z" fill="black"></path>
<path d="M147.901 26.9434C147.901 22.4929 151.268 18.7642 155.838 18.7642C158.363 18.7642 160.166 19.7264 161.489 21.0495C161.73 21.1698 161.85 21.5307 161.85 21.8915C161.85 22.4929 161.369 22.9741 160.768 22.9741C160.527 22.9741 160.166 22.8538 160.046 22.7335C158.964 21.7712 157.641 20.9293 155.838 20.9293C152.711 20.9293 150.306 23.5755 150.306 26.9434C150.306 30.3113 152.711 32.9576 155.958 32.9576C157.761 32.9576 159.084 32.1156 160.287 31.033C160.407 30.9127 160.647 30.7925 160.888 30.7925C161.489 30.7925 161.97 31.2736 161.97 31.875C161.97 32.1156 161.85 32.3561 161.73 32.5967C160.287 34.0401 158.483 35.1227 155.838 35.1227C151.388 35.0024 147.901 31.3939 147.901 26.9434Z" fill="black"></path>
<path d="M165.938 20.2076C165.938 19.6061 166.419 19.0047 167.02 19.0047C167.621 19.0047 168.223 19.4859 168.223 20.2076V22.2524C169.425 20.4481 171.349 18.7642 174.115 18.7642C177.842 18.7642 181.57 21.651 181.57 26.8231C181.57 31.875 177.962 34.8821 174.115 34.8821C171.229 34.8821 169.425 33.3184 168.223 31.6344V38.4906C168.223 39.092 167.742 39.6934 167.14 39.6934C166.539 39.6934 165.938 39.2123 165.938 38.4906V20.2076ZM179.285 26.9434C179.285 23.2146 176.76 20.9293 173.874 20.9293C170.988 20.9293 168.223 23.3349 168.223 26.9434C168.223 30.5519 170.988 32.9576 173.874 32.9576C176.76 32.9576 179.285 30.6722 179.285 26.9434Z" fill="#E9383E"></path>
<path d="M165.938 20.2076C165.938 19.6061 166.419 19.0047 167.02 19.0047C167.621 19.0047 168.223 19.4859 168.223 20.2076V22.2524C169.425 20.4481 171.349 18.7642 174.115 18.7642C177.842 18.7642 181.57 21.651 181.57 26.8231C181.57 31.875 177.962 34.8821 174.115 34.8821C171.229 34.8821 169.425 33.3184 168.223 31.6344V38.4906C168.223 39.092 167.742 39.6934 167.14 39.6934C166.539 39.6934 165.938 39.2123 165.938 38.4906V20.2076ZM179.285 26.9434C179.285 23.2146 176.76 20.9293 173.874 20.9293C170.988 20.9293 168.223 23.3349 168.223 26.9434C168.223 30.5519 170.988 32.9576 173.874 32.9576C176.76 32.9576 179.285 30.6722 179.285 26.9434Z" fill="#E31E41"></path>
<path d="M185.898 20.2076C185.898 19.6062 186.379 19.0048 186.981 19.0048C187.582 19.0048 188.183 19.4859 188.183 20.2076V23.0944C189.265 20.5684 191.55 19.0048 193.474 19.0048C194.195 19.0048 194.556 19.4859 194.556 20.2076C194.556 20.809 194.195 21.2901 193.594 21.4104C190.588 21.7713 188.183 24.0566 188.183 28.5071V33.6793C188.183 34.2807 187.702 34.8821 187.101 34.8821C186.5 34.8821 185.898 34.401 185.898 33.6793V20.2076Z" fill="#E9383E"></path>
<path d="M185.898 20.2076C185.898 19.6062 186.379 19.0048 186.981 19.0048C187.582 19.0048 188.183 19.4859 188.183 20.2076V23.0944C189.265 20.5684 191.55 19.0048 193.474 19.0048C194.195 19.0048 194.556 19.4859 194.556 20.2076C194.556 20.809 194.195 21.2901 193.594 21.4104C190.588 21.7713 188.183 24.0566 188.183 28.5071V33.6793C188.183 34.2807 187.702 34.8821 187.101 34.8821C186.5 34.8821 185.898 34.401 185.898 33.6793V20.2076Z" fill="#E31E41"></path>
<path d="M204.176 35.0024C199.967 35.0024 196.48 31.7548 196.48 26.9435C196.48 22.493 199.606 18.8845 203.935 18.8845C208.504 18.8845 211.15 22.6133 211.15 26.7029C211.15 27.3043 210.669 27.7855 210.068 27.7855H198.885C199.246 31.1534 201.53 33.0779 204.296 33.0779C206.22 33.0779 207.663 32.3562 208.745 31.2737C208.865 31.1534 209.106 31.0331 209.346 31.0331C209.947 31.0331 210.308 31.5142 210.308 31.9954C210.308 32.2359 210.188 32.4765 209.947 32.7171C208.504 34.0402 206.821 35.0024 204.176 35.0024ZM208.745 26.1015C208.504 23.335 206.941 20.809 203.815 20.809C201.17 20.809 199.125 23.0944 198.765 26.1015H208.745Z" fill="#E9383E"></path>
<path d="M204.176 35.0024C199.967 35.0024 196.48 31.7548 196.48 26.9435C196.48 22.493 199.606 18.8845 203.935 18.8845C208.504 18.8845 211.15 22.6133 211.15 26.7029C211.15 27.3043 210.669 27.7855 210.068 27.7855H198.885C199.246 31.1534 201.53 33.0779 204.296 33.0779C206.22 33.0779 207.663 32.3562 208.745 31.2737C208.865 31.1534 209.106 31.0331 209.346 31.0331C209.947 31.0331 210.308 31.5142 210.308 31.9954C210.308 32.2359 210.188 32.4765 209.947 32.7171C208.504 34.0402 206.821 35.0024 204.176 35.0024ZM208.745 26.1015C208.504 23.335 206.941 20.809 203.815 20.809C201.17 20.809 199.125 23.0944 198.765 26.1015H208.745Z" fill="#E31E41"></path>
<path d="M214.276 32.9575C214.036 32.8373 213.916 32.4764 213.916 32.1156C213.916 31.6344 214.397 31.1533 214.877 31.1533C215.118 31.1533 215.238 31.1533 215.479 31.3939C217.042 32.4764 218.725 33.0778 220.409 33.0778C222.212 33.0778 223.655 32.1156 223.655 30.6722C223.655 29.1085 221.852 28.5071 219.808 27.9057C217.403 27.184 214.637 26.342 214.637 23.5755C214.637 20.9292 216.801 19.125 219.928 19.125C221.611 19.125 223.415 19.6061 224.858 20.4481C225.098 20.5684 225.459 20.9292 225.459 21.4104C225.459 21.8915 224.978 22.3726 224.497 22.3726C224.257 22.3726 224.136 22.3726 224.016 22.2524C222.693 21.5307 221.25 21.0495 219.928 21.0495C218.124 21.0495 216.922 22.0118 216.922 23.3349C216.922 24.7783 218.846 25.3797 220.89 25.9811C223.295 26.7028 225.82 27.6651 225.82 30.4316C225.82 33.3184 223.415 35.1226 220.289 35.1226C218.244 35.0024 215.96 34.1604 214.276 32.9575Z" fill="#E9383E"></path>
<path d="M214.276 32.9575C214.036 32.8373 213.916 32.4764 213.916 32.1156C213.916 31.6344 214.397 31.1533 214.877 31.1533C215.118 31.1533 215.238 31.1533 215.479 31.3939C217.042 32.4764 218.725 33.0778 220.409 33.0778C222.212 33.0778 223.655 32.1156 223.655 30.6722C223.655 29.1085 221.852 28.5071 219.808 27.9057C217.403 27.184 214.637 26.342 214.637 23.5755C214.637 20.9292 216.801 19.125 219.928 19.125C221.611 19.125 223.415 19.6061 224.858 20.4481C225.098 20.5684 225.459 20.9292 225.459 21.4104C225.459 21.8915 224.978 22.3726 224.497 22.3726C224.257 22.3726 224.136 22.3726 224.016 22.2524C222.693 21.5307 221.25 21.0495 219.928 21.0495C218.124 21.0495 216.922 22.0118 216.922 23.3349C216.922 24.7783 218.846 25.3797 220.89 25.9811C223.295 26.7028 225.82 27.6651 225.82 30.4316C225.82 33.3184 223.415 35.1226 220.289 35.1226C218.244 35.0024 215.96 34.1604 214.276 32.9575Z" fill="#E31E41"></path>
<path d="M228.946 32.9575C228.706 32.8373 228.585 32.4764 228.585 32.1156C228.585 31.6344 229.066 31.1533 229.547 31.1533C229.788 31.1533 229.908 31.1533 230.149 31.3939C231.712 32.4764 233.395 33.0778 235.079 33.0778C236.882 33.0778 238.325 32.1156 238.325 30.6722C238.325 29.1085 236.522 28.5071 234.477 27.9057C232.073 27.184 229.307 26.342 229.307 23.5755C229.307 20.9292 231.471 19.125 234.598 19.125C236.281 19.125 238.085 19.6061 239.528 20.4481C239.768 20.5684 240.129 20.9292 240.129 21.4104C240.129 21.8915 239.648 22.3726 239.167 22.3726C238.926 22.3726 238.806 22.3726 238.686 22.2524C237.363 21.5307 235.92 21.0495 234.598 21.0495C232.794 21.0495 231.592 22.0118 231.592 23.3349C231.592 24.7783 233.515 25.3797 235.56 25.9811C237.965 26.7028 240.49 27.6651 240.49 30.4316C240.49 33.3184 238.085 35.1226 234.958 35.1226C232.794 35.0024 230.63 34.1604 228.946 32.9575Z" fill="#E9383E"></path>
<path d="M228.946 32.9575C228.706 32.8373 228.585 32.4764 228.585 32.1156C228.585 31.6344 229.066 31.1533 229.547 31.1533C229.788 31.1533 229.908 31.1533 230.149 31.3939C231.712 32.4764 233.395 33.0778 235.079 33.0778C236.882 33.0778 238.325 32.1156 238.325 30.6722C238.325 29.1085 236.522 28.5071 234.477 27.9057C232.073 27.184 229.307 26.342 229.307 23.5755C229.307 20.9292 231.471 19.125 234.598 19.125C236.281 19.125 238.085 19.6061 239.528 20.4481C239.768 20.5684 240.129 20.9292 240.129 21.4104C240.129 21.8915 239.648 22.3726 239.167 22.3726C238.926 22.3726 238.806 22.3726 238.686 22.2524C237.363 21.5307 235.92 21.0495 234.598 21.0495C232.794 21.0495 231.592 22.0118 231.592 23.3349C231.592 24.7783 233.515 25.3797 235.56 25.9811C237.965 26.7028 240.49 27.6651 240.49 30.4316C240.49 33.3184 238.085 35.1226 234.958 35.1226C232.794 35.0024 230.63 34.1604 228.946 32.9575Z" fill="#E31E41"></path>
<path d="M245.781 31.3939C246.623 31.3939 247.224 31.9953 247.224 32.8373V33.4387C247.224 34.2807 246.623 34.8821 245.781 34.8821C244.939 34.8821 244.338 34.2807 244.338 33.4387V32.8373C244.338 31.9953 244.939 31.3939 245.781 31.3939Z" fill="black"></path>
<path d="M252.033 14.3137C252.033 13.592 252.634 13.1108 253.356 13.1108C254.077 13.1108 254.679 13.592 254.679 14.3137V14.6745C254.679 15.3962 254.077 15.8773 253.356 15.8773C252.634 15.8773 252.033 15.3962 252.033 14.6745V14.3137ZM252.274 20.2075C252.274 19.6061 252.755 19.0047 253.356 19.0047C253.957 19.0047 254.558 19.4858 254.558 20.2075V33.6792C254.558 34.2807 254.077 34.8821 253.476 34.8821C252.875 34.8821 252.274 34.4009 252.274 33.6792V20.2075Z" fill="black"></path>
<path d="M258.887 26.9434C258.887 22.4929 262.254 18.7642 266.943 18.7642C271.633 18.7642 275 22.3726 275 26.8231C275 31.1533 271.512 34.8821 266.823 34.8821C262.374 35.0024 258.887 31.3939 258.887 26.9434ZM272.715 26.9434C272.715 23.5755 270.19 20.809 266.943 20.809C263.576 20.809 261.292 23.5755 261.292 26.8231C261.292 30.191 263.697 32.8373 267.063 32.8373C270.43 32.9576 272.715 30.3113 272.715 26.9434Z" fill="black"></path>
<path d="M25.4919 0C11.4233 0 0 11.4269 0 25.5C0 33.6792 3.84784 41.0165 9.98032 45.5873L13.5877 41.8585C13.5877 41.7382 13.7079 41.7382 13.8282 41.6179L14.3091 41.0165L19.5999 35.7241C21.2833 36.6863 23.3275 37.2877 25.4919 37.2877C32.1054 37.2877 37.3962 31.9953 37.3962 25.3797C37.3962 18.7642 32.1054 13.4717 25.4919 13.4717C18.8784 13.4717 13.5877 18.7642 13.5877 25.3797C13.5877 27.6651 14.1889 29.8302 15.3913 31.6344L10.1006 36.9269C7.69567 33.6792 6.25273 29.7099 6.25273 25.5C6.25273 14.9151 14.9104 6.25472 25.4919 6.25472C36.0735 6.25472 44.7311 14.9151 44.7311 25.5C44.7311 36.0849 36.0735 44.7453 25.4919 44.7453C23.8085 44.7453 22.1251 44.5047 20.5619 44.1439L20.0809 44.625L15.8723 49.0755C18.8784 50.2783 22.1251 51 25.6122 51C39.6808 51 51.1041 39.5731 51.1041 25.5C51.1041 11.4269 39.5606 0 25.4919 0Z" fill="#E9383E"></path>
<path d="M25.4919 0C11.4233 0 0 11.4269 0 25.5C0 33.6792 3.84784 41.0165 9.98032 45.5873L13.5877 41.8585C13.5877 41.7382 13.7079 41.7382 13.8282 41.6179L14.3091 41.0165L19.5999 35.7241C21.2833 36.6863 23.3275 37.2877 25.4919 37.2877C32.1054 37.2877 37.3962 31.9953 37.3962 25.3797C37.3962 18.7642 32.1054 13.4717 25.4919 13.4717C18.8784 13.4717 13.5877 18.7642 13.5877 25.3797C13.5877 27.6651 14.1889 29.8302 15.3913 31.6344L10.1006 36.9269C7.69567 33.6792 6.25273 29.7099 6.25273 25.5C6.25273 14.9151 14.9104 6.25472 25.4919 6.25472C36.0735 6.25472 44.7311 14.9151 44.7311 25.5C44.7311 36.0849 36.0735 44.7453 25.4919 44.7453C23.8085 44.7453 22.1251 44.5047 20.5619 44.1439L20.0809 44.625L15.8723 49.0755C18.8784 50.2783 22.1251 51 25.6122 51C39.6808 51 51.1041 39.5731 51.1041 25.5C51.1041 11.4269 39.5606 0 25.4919 0Z" fill="#E31E41"></path>
</svg>