<svg width="17" height="17" viewBox="0 0 17 17" fill="none" xmlns="http://www.w3.org/2000/svg">
<path d="M11.941 0.800754C12.0969 0.779969 12.2112 0.821539 12.3671 0.873503C12.9491 1.07096 13.2297 1.69452 13.053 2.27651C12.8763 2.84811 12.0137 5.43588 12.0137 5.99708C12.0137 6.54789 12.7932 7.03635 13.4167 7.03635H16.5345C17.1581 7.03635 17.5738 7.45205 17.5738 8.07561C17.5738 8.69917 15.4953 15.3505 15.4953 15.3505C15.3186 15.7558 14.9237 16.3897 14.456 16.3897H4.95711V7.03635H7.18114C7.60724 6.61025 10.6107 2.14141 10.9017 1.55942C11.12 1.13332 11.5253 0.852718 11.941 0.800754ZM0.800049 7.03635H2.87858V16.3897H0.800049V7.03635Z" fill="#46B450"/>
</svg>
