<svg width="16" height="15" viewBox="0 0 16 15" fill="none" xmlns="http://www.w3.org/2000/svg">
<path d="M5.2154 14.4331C5.07107 14.4523 4.96523 14.4138 4.82089 14.3657C4.28206 14.1829 4.02226 13.6056 4.18584 13.0668C4.34941 12.5375 5.14804 10.1416 5.14804 9.62206C5.14804 9.11209 4.42639 8.65985 3.84907 8.65985H0.96245C0.385126 8.65985 0.000244141 8.27497 0.000244141 7.69765C0.000244141 7.12032 1.92466 0.962206 1.92466 0.962206C2.08823 0.586945 2.45387 0 2.88686 0H11.6814V8.65985H9.6223C9.2278 9.05436 6.44702 13.1918 6.1776 13.7307C5.97554 14.1252 5.60028 14.385 5.2154 14.4331ZM15.5302 8.65985H13.6058V0H15.5302V8.65985Z" fill="#DC3232"/>
</svg>
