<svg width="400" height="96" viewBox="0 0 400 96" fill="none" xmlns="http://www.w3.org/2000/svg">
<path d="M38.7375 63.3022C38.8284 63.4061 38.9864 63.4167 39.0903 63.3257L48.9236 54.7216C48.9735 54.6779 49.004 54.6162 49.0085 54.5501C49.0129 54.4839 48.9908 54.4187 48.9471 54.3688L46.5189 51.5937C46.428 51.4898 46.2701 51.4792 46.1661 51.5702L36.3328 60.1743C36.2829 60.218 36.2524 60.2797 36.248 60.3458C36.2436 60.412 36.2656 60.4772 36.3093 60.5271L38.7375 63.3022Z" fill="#13191E" stroke="#13191E" stroke-width="0.5" stroke-linejoin="round"/>
<path d="M65.7323 45.7708C65.7323 51.0636 61.4417 55.3542 56.149 55.3542C50.8563 55.3542 46.5657 51.0636 46.5657 45.7708C46.5657 40.4781 50.8563 36.1875 56.149 36.1875C61.4417 36.1875 65.7323 40.4781 65.7323 45.7708ZM56.149 59.5417C63.7544 59.5417 69.9198 53.3763 69.9198 45.7708C69.9198 38.1654 63.7544 32 56.149 32C48.5436 32 42.3782 38.1654 42.3782 45.7708C42.3782 53.3763 48.5436 59.5417 56.149 59.5417Z" fill="#13191E" stroke="#13191E" stroke-width="0.5" stroke-linejoin="round"/>
<path d="M88.5165 35.01H105.562V39.455H93.7315V44.915H104.862V49.395H93.7315V55.555H106.297L105.772 60H88.5165V35.01ZM108.205 41.73H112.965V44.25C113.688 43.1767 114.54 42.395 115.52 41.905C116.523 41.415 117.561 41.17 118.635 41.17C120.711 41.17 122.251 41.7183 123.255 42.815C124.258 43.8883 124.76 45.5917 124.76 47.925V60H119.86V48.59C119.86 47.3067 119.615 46.4317 119.125 45.965C118.635 45.4983 117.981 45.265 117.165 45.265C116.535 45.265 115.986 45.3583 115.52 45.545C115.076 45.7317 114.656 46 114.26 46.35C113.933 46.6767 113.653 47.0733 113.42 47.54C113.21 47.9833 113.105 48.4733 113.105 49.01V60H108.205V41.73ZM128.987 45.545H126.117V41.73H128.987V36.865H133.887V41.73H138.087V45.545H133.887V53.98C133.887 54.9367 134.086 55.59 134.482 55.94C134.879 56.2667 135.392 56.43 136.022 56.43C136.349 56.43 136.676 56.4183 137.002 56.395C137.352 56.3483 137.691 56.2783 138.017 56.185L138.717 59.79C138.041 60 137.376 60.14 136.722 60.21C136.092 60.3033 135.486 60.35 134.902 60.35C132.896 60.35 131.402 59.8717 130.422 58.915C129.466 57.9583 128.987 56.3483 128.987 54.085V45.545ZM156.467 54.295C156.141 56.3483 155.312 57.9117 153.982 58.985C152.676 60.035 150.762 60.56 148.242 60.56C145.209 60.56 142.922 59.72 141.382 58.04C139.866 56.36 139.107 53.98 139.107 50.9C139.107 49.36 139.329 47.995 139.772 46.805C140.216 45.5917 140.834 44.565 141.627 43.725C142.444 42.885 143.412 42.255 144.532 41.835C145.652 41.3917 146.889 41.17 148.242 41.17C151.042 41.17 153.142 41.975 154.542 43.585C155.966 45.195 156.677 47.365 156.677 50.095V52.055H144.007C144.054 53.525 144.427 54.68 145.127 55.52C145.827 56.3367 146.877 56.745 148.277 56.745C150.214 56.745 151.357 55.9283 151.707 54.295H156.467ZM151.952 48.835C151.952 47.575 151.637 46.595 151.007 45.895C150.401 45.195 149.444 44.845 148.137 44.845C147.484 44.845 146.912 44.95 146.422 45.16C145.932 45.37 145.512 45.6617 145.162 46.035C144.836 46.385 144.579 46.805 144.392 47.295C144.206 47.7617 144.101 48.275 144.077 48.835H151.952ZM159.298 41.73H164.058V44.285C164.664 43.3283 165.399 42.6167 166.263 42.15C167.126 41.66 168.036 41.415 168.993 41.415C169.459 41.415 169.844 41.4383 170.148 41.485C170.451 41.5083 170.719 41.5433 170.953 41.59L170.358 46.035C169.798 45.895 169.109 45.825 168.293 45.825C167.756 45.825 167.243 45.895 166.753 46.035C166.263 46.1517 165.819 46.385 165.423 46.735C165.003 47.1083 164.688 47.5283 164.478 47.995C164.291 48.4617 164.198 48.94 164.198 49.43V60H159.298V41.73ZM172.911 41.73H177.671V44.145C179.071 42.1617 180.984 41.17 183.411 41.17C185.954 41.17 187.856 42.0333 189.116 43.76C190.376 45.4867 191.006 47.855 191.006 50.865C191.006 52.3117 190.819 53.63 190.446 54.82C190.096 56.01 189.571 57.0367 188.871 57.9C188.194 58.74 187.366 59.3933 186.386 59.86C185.406 60.3267 184.298 60.56 183.061 60.56C182.151 60.56 181.241 60.3967 180.331 60.07C179.444 59.7433 178.604 59.09 177.811 58.11V66.79H172.911V41.73ZM177.776 51.005C177.776 52.195 177.869 53.1517 178.056 53.875C178.266 54.575 178.593 55.1467 179.036 55.59C179.503 56.01 179.969 56.29 180.436 56.43C180.926 56.5467 181.416 56.605 181.906 56.605C182.443 56.605 182.956 56.5 183.446 56.29C183.936 56.08 184.356 55.7533 184.706 55.31C185.079 54.8433 185.371 54.2483 185.581 53.525C185.791 52.8017 185.896 51.9267 185.896 50.9C185.896 49.8267 185.791 48.9283 185.581 48.205C185.394 47.4817 185.126 46.8983 184.776 46.455C184.426 45.9883 184.006 45.6617 183.516 45.475C183.049 45.265 182.548 45.16 182.011 45.16C181.404 45.16 180.879 45.2417 180.436 45.405C179.993 45.5683 179.561 45.825 179.141 46.175C178.674 46.6183 178.324 47.1783 178.091 47.855C177.881 48.5317 177.776 49.395 177.776 50.445V51.005ZM193.667 41.73H198.427V44.285C199.034 43.3283 199.769 42.6167 200.632 42.15C201.496 41.66 202.406 41.415 203.362 41.415C203.829 41.415 204.214 41.4383 204.517 41.485C204.821 41.5083 205.089 41.5433 205.322 41.59L204.727 46.035C204.167 45.895 203.479 45.825 202.662 45.825C202.126 45.825 201.612 45.895 201.122 46.035C200.632 46.1517 200.189 46.385 199.792 46.735C199.372 47.1083 199.057 47.5283 198.847 47.995C198.661 48.4617 198.567 48.94 198.567 49.43V60H193.667V41.73ZM207.316 41.73H212.216V60H207.316V41.73ZM207.246 35.01H212.286V39.42H207.246V35.01ZM219.062 54.19C219.226 55.2633 219.657 55.9633 220.357 56.29C221.057 56.6167 221.897 56.78 222.877 56.78C224.044 56.78 224.872 56.64 225.362 56.36C225.876 56.0567 226.132 55.5783 226.132 54.925C226.132 54.4583 225.969 54.05 225.642 53.7C225.339 53.35 224.744 53.105 223.857 52.965L221.337 52.545C219.121 52.195 217.464 51.6 216.367 50.76C215.294 49.8967 214.757 48.6017 214.757 46.875C214.757 45.9883 214.944 45.195 215.317 44.495C215.714 43.795 216.262 43.2 216.962 42.71C217.662 42.22 218.491 41.8467 219.447 41.59C220.427 41.31 221.501 41.17 222.667 41.17C224.114 41.17 225.327 41.3217 226.307 41.625C227.287 41.905 228.081 42.29 228.687 42.78C229.317 43.27 229.784 43.8533 230.087 44.53C230.414 45.2067 230.647 45.93 230.787 46.7L226.412 47.26C226.202 46.42 225.829 45.8017 225.292 45.405C224.779 45.0083 223.939 44.81 222.772 44.81C222.119 44.81 221.571 44.8683 221.127 44.985C220.707 45.0783 220.369 45.2067 220.112 45.37C219.879 45.5333 219.704 45.72 219.587 45.93C219.494 46.14 219.447 46.3383 219.447 46.525C219.447 47.1083 219.622 47.54 219.972 47.82C220.346 48.0767 221.057 48.2983 222.107 48.485L224.417 48.87C225.701 49.08 226.762 49.3483 227.602 49.675C228.442 50.0017 229.107 50.41 229.597 50.9C230.111 51.3667 230.461 51.9267 230.647 52.58C230.857 53.2333 230.962 53.9917 230.962 54.855C230.962 56.5817 230.309 57.97 229.002 59.02C227.696 60.0467 225.677 60.56 222.947 60.56C221.851 60.56 220.801 60.455 219.797 60.245C218.817 60.0583 217.931 59.72 217.137 59.23C216.367 58.74 215.726 58.0867 215.212 57.27C214.722 56.4533 214.442 55.4267 214.372 54.19H219.062ZM249.664 54.295C249.338 56.3483 248.509 57.9117 247.179 58.985C245.873 60.035 243.959 60.56 241.439 60.56C238.406 60.56 236.119 59.72 234.579 58.04C233.063 56.36 232.304 53.98 232.304 50.9C232.304 49.36 232.526 47.995 232.969 46.805C233.413 45.5917 234.031 44.565 234.824 43.725C235.641 42.885 236.609 42.255 237.729 41.835C238.849 41.3917 240.086 41.17 241.439 41.17C244.239 41.17 246.339 41.975 247.739 43.585C249.163 45.195 249.874 47.365 249.874 50.095V52.055H237.204C237.251 53.525 237.624 54.68 238.324 55.52C239.024 56.3367 240.074 56.745 241.474 56.745C243.411 56.745 244.554 55.9283 244.904 54.295H249.664ZM245.149 48.835C245.149 47.575 244.834 46.595 244.204 45.895C243.598 45.195 242.641 44.845 241.334 44.845C240.681 44.845 240.109 44.95 239.619 45.16C239.129 45.37 238.709 45.6617 238.359 46.035C238.033 46.385 237.776 46.805 237.589 47.295C237.403 47.7617 237.298 48.275 237.274 48.835H245.149ZM263.333 51.845C263.449 53.385 263.939 54.505 264.803 55.205C265.689 55.905 266.984 56.255 268.688 56.255C269.504 56.255 270.193 56.1733 270.753 56.01C271.313 55.8233 271.768 55.59 272.118 55.31C272.468 55.0067 272.713 54.6567 272.853 54.26C273.016 53.8633 273.098 53.4317 273.098 52.965C273.098 52.3117 272.853 51.705 272.363 51.145C271.873 50.5617 270.974 50.1417 269.668 49.885L266.413 49.29C265.129 49.0567 263.998 48.7533 263.018 48.38C262.038 48.0067 261.209 47.5283 260.533 46.945C259.879 46.3383 259.378 45.6033 259.028 44.74C258.678 43.8767 258.503 42.85 258.503 41.66C258.503 40.47 258.736 39.42 259.203 38.51C259.693 37.6 260.358 36.8417 261.198 36.235C262.061 35.6283 263.088 35.1733 264.278 34.87C265.468 34.5433 266.774 34.38 268.198 34.38C270.018 34.38 271.534 34.59 272.748 35.01C273.961 35.43 274.941 35.99 275.688 36.69C276.434 37.3667 276.983 38.16 277.333 39.07C277.706 39.98 277.951 40.925 278.068 41.905L273.133 42.535C272.876 41.1583 272.374 40.1667 271.628 39.56C270.904 38.9533 269.796 38.65 268.303 38.65C267.416 38.65 266.681 38.7317 266.098 38.895C265.538 39.035 265.083 39.2333 264.733 39.49C264.383 39.7233 264.138 40.0033 263.998 40.33C263.858 40.6567 263.788 40.995 263.788 41.345C263.788 42.2783 264.044 42.9783 264.558 43.445C265.094 43.9117 265.993 44.2733 267.253 44.53L270.683 45.195C273.389 45.7317 275.373 46.6067 276.633 47.82C277.893 49.01 278.523 50.7367 278.523 53C278.523 54.0967 278.313 55.1117 277.893 56.045C277.496 56.955 276.889 57.76 276.073 58.46C275.279 59.1367 274.276 59.6617 273.063 60.035C271.849 60.4317 270.426 60.63 268.793 60.63C265.386 60.63 262.773 59.9067 260.953 58.46C259.156 56.99 258.188 54.785 258.048 51.845H263.333ZM297.818 54.295C297.492 56.3483 296.663 57.9117 295.333 58.985C294.027 60.035 292.113 60.56 289.593 60.56C286.56 60.56 284.273 59.72 282.733 58.04C281.217 56.36 280.458 53.98 280.458 50.9C280.458 49.36 280.68 47.995 281.123 46.805C281.567 45.5917 282.185 44.565 282.978 43.725C283.795 42.885 284.763 42.255 285.883 41.835C287.003 41.3917 288.24 41.17 289.593 41.17C292.393 41.17 294.493 41.975 295.893 43.585C297.317 45.195 298.028 47.365 298.028 50.095V52.055H285.358C285.405 53.525 285.778 54.68 286.478 55.52C287.178 56.3367 288.228 56.745 289.628 56.745C291.565 56.745 292.708 55.9283 293.058 54.295H297.818ZM293.303 48.835C293.303 47.575 292.988 46.595 292.358 45.895C291.752 45.195 290.795 44.845 289.488 44.845C288.835 44.845 288.263 44.95 287.773 45.16C287.283 45.37 286.863 45.6617 286.513 46.035C286.187 46.385 285.93 46.805 285.743 47.295C285.557 47.7617 285.452 48.275 285.428 48.835H293.303ZM311.499 57.69C310.775 58.5067 309.959 59.1717 309.049 59.685C308.162 60.1983 307.007 60.455 305.584 60.455C304.767 60.455 303.985 60.35 303.239 60.14C302.515 59.93 301.874 59.6033 301.314 59.16C300.777 58.7167 300.345 58.1567 300.019 57.48C299.692 56.78 299.529 55.9517 299.529 54.995C299.529 53.735 299.809 52.7083 300.369 51.915C300.929 51.1217 301.664 50.5033 302.574 50.06C303.484 49.6167 304.499 49.3017 305.619 49.115C306.762 48.9283 307.917 48.8117 309.084 48.765L311.429 48.66V47.75C311.429 46.63 311.114 45.86 310.484 45.44C309.877 45.02 309.154 44.81 308.314 44.81C306.377 44.81 305.269 45.545 304.989 47.015L300.509 46.595C300.835 44.6817 301.675 43.305 303.029 42.465C304.382 41.6017 306.202 41.17 308.489 41.17C309.889 41.17 311.079 41.345 312.059 41.695C313.039 42.0217 313.82 42.5 314.404 43.13C315.01 43.76 315.442 44.53 315.699 45.44C315.979 46.3267 316.119 47.33 316.119 48.45V60H311.499V57.69ZM311.394 51.845L309.224 51.95C308.197 51.9967 307.369 52.1017 306.739 52.265C306.109 52.4283 305.619 52.6383 305.269 52.895C304.942 53.1283 304.72 53.4083 304.604 53.735C304.487 54.0617 304.429 54.4233 304.429 54.82C304.429 55.4267 304.639 55.905 305.059 56.255C305.479 56.605 306.062 56.78 306.809 56.78C308.069 56.78 309.095 56.4883 309.889 55.905C310.332 55.5783 310.694 55.17 310.974 54.68C311.254 54.1667 311.394 53.5367 311.394 52.79V51.845ZM319.218 41.73H323.978V44.285C324.584 43.3283 325.319 42.6167 326.183 42.15C327.046 41.66 327.956 41.415 328.913 41.415C329.379 41.415 329.764 41.4383 330.068 41.485C330.371 41.5083 330.639 41.5433 330.873 41.59L330.278 46.035C329.718 45.895 329.029 45.825 328.213 45.825C327.676 45.825 327.163 45.895 326.673 46.035C326.183 46.1517 325.739 46.385 325.343 46.735C324.923 47.1083 324.608 47.5283 324.398 47.995C324.211 48.4617 324.118 48.94 324.118 49.43V60H319.218V41.73ZM348.357 53.385C348.17 55.5783 347.412 57.3283 346.082 58.635C344.775 59.9183 342.804 60.56 340.167 60.56C338.627 60.56 337.297 60.3267 336.177 59.86C335.057 59.3933 334.135 58.74 333.412 57.9C332.712 57.06 332.187 56.045 331.837 54.855C331.487 53.665 331.312 52.3467 331.312 50.9C331.312 49.4533 331.51 48.135 331.907 46.945C332.327 45.7317 332.922 44.705 333.692 43.865C334.462 43.0017 335.407 42.3367 336.527 41.87C337.647 41.4033 338.93 41.17 340.377 41.17C341.614 41.17 342.687 41.3333 343.597 41.66C344.53 41.9633 345.312 42.395 345.942 42.955C346.572 43.515 347.062 44.1917 347.412 44.985C347.762 45.755 347.995 46.6067 348.112 47.54L343.177 48.205C343.06 47.2717 342.792 46.525 342.372 45.965C341.952 45.3817 341.229 45.09 340.202 45.09C339.455 45.09 338.837 45.2533 338.347 45.58C337.857 45.8833 337.46 46.3033 337.157 46.84C336.877 47.3767 336.679 47.995 336.562 48.695C336.445 49.3717 336.387 50.0833 336.387 50.83C336.387 51.6 336.445 52.335 336.562 53.035C336.679 53.735 336.877 54.3533 337.157 54.89C337.437 55.4267 337.822 55.8583 338.312 56.185C338.802 56.4883 339.42 56.64 340.167 56.64C341.147 56.64 341.905 56.36 342.442 55.8C342.979 55.24 343.294 54.435 343.387 53.385H348.357ZM350.819 35.01H355.719V44.04C356.442 43.06 357.282 42.3367 358.239 41.87C359.196 41.4033 360.199 41.17 361.249 41.17C363.326 41.17 364.866 41.7183 365.869 42.815C366.872 43.8883 367.374 45.5917 367.374 47.925V60H362.474V48.59C362.474 47.3067 362.229 46.4317 361.739 45.965C361.249 45.4983 360.596 45.265 359.779 45.265C359.149 45.265 358.601 45.3583 358.134 45.545C357.691 45.7317 357.271 46 356.874 46.35C356.547 46.6767 356.267 47.0733 356.034 47.54C355.824 47.9833 355.719 48.4733 355.719 49.01V60H350.819V35.01Z" fill="#13191E"/>
</svg>
